<svg width="24" height="24" viewBox="0 0 24 24" fill="none" xmlns="http://www.w3.org/2000/svg">
  <path d="M12 14.25C14.0711 14.25 15.75 12.5711 15.75 10.5V6.75C15.75 4.67893 14.0711 3 12 3C9.92893 3 8.25 4.67893 8.25 6.75V10.5C8.25 12.5711 9.92893 14.25 12 14.25Z" fill="#111111"/>
  <path d="M6 10.5C6 10.0858 5.66421 9.75 5.25 9.75C4.83579 9.75 4.5 10.0858 4.5 10.5C4.5 14.1197 7.19949 17.1112 10.6875 17.5728V20.25H8.25C7.83579 20.25 7.5 20.5858 7.5 21C7.5 21.4142 7.83579 21.75 8.25 21.75H15.75C16.1642 21.75 16.5 21.4142 16.5 21C16.5 20.5858 16.1642 20.25 15.75 20.25H13.3125V17.5728C16.8005 17.1112 19.5 14.1197 19.5 10.5C19.5 10.0858 19.1642 9.75 18.75 9.75C18.3358 9.75 18 10.0858 18 10.5C18 13.8137 15.3137 16.5 12 16.5C8.68629 16.5 6 13.8137 6 10.5Z" fill="#111111"/>
</svg>
